<svg width="1024" height="1024" viewBox="0 0 1024 1024" xmlns="http://www.w3.org/2000/svg">
  <defs>
    <linearGradient id="bg" x1="0" y1="0" x2="1" y2="1">
      <stop offset="0%" stop-color="#101B38"/>
      <stop offset="52%" stop-color="#23467C"/>
      <stop offset="100%" stop-color="#6D86C8"/>
    </linearGradient>

    <radialGradient id="glow" cx="50%" cy="42%" r="38%">
      <stop offset="0%" stop-color="#F7F9FF" stop-opacity="0.88"/>
      <stop offset="45%" stop-color="#DCE6FF" stop-opacity="0.42"/>
      <stop offset="100%" stop-color="#DCE6FF" stop-opacity="0"/>
    </radialGradient>

    <filter id="softGlow" x="-30%" y="-30%" width="160%" height="160%">
      <feGaussianBlur stdDeviation="10" result="blur"/>
      <feMerge>
        <feMergeNode in="blur"/>
        <feMergeNode in="SourceGraphic"/>
      </feMerge>
    </filter>

    <filter id="shadow" x="-20%" y="-20%" width="140%" height="140%">
      <feDropShadow dx="0" dy="6" stdDeviation="8" flood-color="#07101F" flood-opacity="0.18"/>
    </filter>
  </defs>

  <rect width="1024" height="1024" rx="220" fill="url(#bg)"/>
  <circle cx="512" cy="410" r="230" fill="url(#glow)"/>

  <g opacity="0.16" stroke="#DCE7FF" fill="none">
    <circle cx="512" cy="410" r="190" stroke-width="4"/>
    <path d="M322 410a190 190 0 0 1 380 0" stroke-width="6" stroke-linecap="round"/>
    <path d="M356 410a156 156 0 0 1 312 0" stroke-width="4" stroke-linecap="round" opacity="0.8"/>
  </g>

  <g fill="#DCE7FF" opacity="0.88" filter="url(#softGlow)">
    <g transform="translate(710 300) rotate(-8)">
      <rect x="0" y="0" width="10" height="54" rx="5"/>
      <rect x="28" y="-10" width="10" height="64" rx="5"/>
      <path d="M10 2 Q24 -8 38 -10 L38 4 Q24 6 10 16 Z"/>
      <ellipse cx="6" cy="56" rx="16" ry="12"/>
      <ellipse cx="34" cy="58" rx="16" ry="12"/>
    </g>
    <g transform="translate(266 334) rotate(12) scale(0.82)">
      <rect x="0" y="0" width="9" height="48" rx="4.5"/>
      <path d="M9 3 Q24 -2 40 2 L40 14 Q24 12 9 18 Z"/>
      <ellipse cx="5" cy="50" rx="14" ry="10"/>
    </g>
  </g>

  <ellipse cx="512" cy="748" rx="182" ry="30" fill="#C8D7FF" opacity="0.13"/>

  <g filter="url(#shadow)">
    <!-- older girl -->
    <g transform="translate(428 560)">
      <circle cx="0" cy="0" r="32" fill="#D8E2F0"/>
      <path d="M-30 -6 C-24 -34,22 -38,30 -6 C18 -14,-18 -14,-30 -6 Z" fill="#C5D3E6"/>

      <!-- single closed silhouette: left arm + torso + right arm -->
<path d="
  M -18 44
  Q -24 52 -29 66
  Q -34 80 -35 95
  Q -34 101 -29 102
  Q -24 102 -21 96
  Q -18 84 -13 72
  Q -9 60 -2 54
  Q -2 46 -10 40
  Q 8 24 24 42
  Q 32 50 34 62
  Q 44 64 56 68
  Q 68 72 78 80
  Q 86 86 84 92
  Q 78 96 70 92
  Q 58 86 46 80
  Q 36 76 24 68
  L 36 128
  Q 4 150 -26 128
  L -11 64
  Q -12 54 -18 44
  Z"
  fill="#D8E2F0"/>

      <ellipse cx="86" cy="82" rx="8" ry="7" fill="#D8E2F0"/>
<circle cx="-8" cy="50" r="11" fill="#D8E2F0"/>
      <rect x="-8" y="126" width="12" height="54" rx="6" fill="#D8E2F0"/>
      <rect x="10" y="126" width="12" height="54" rx="6" fill="#D8E2F0"/>
      <ellipse cx="-3" cy="184" rx="14" ry="7" fill="#C7D5E6"/>
      <ellipse cx="16" cy="184" rx="14" ry="7" fill="#C7D5E6"/>
    </g>

    <!-- younger girl -->
    <g transform="translate(592 610)">
      <circle cx="0" cy="0" r="24" fill="#E7DCCF"/>
      <path d="M-22 -4 C-18 -24,16 -28,22 -4 C12 -10,-12 -10,-22 -4 Z" fill="#D8C6B2"/>
      <circle cx="16" cy="-16" r="7" fill="#D8C6B2"/>

      <path d="M-16 32 Q-2 18 10 32 L24 98 Q2 114 -20 98 Z" fill="#E7DCCF"/>

      <path d="
        M -10 40
        Q -24 36 -38 34
        Q -52 32 -62 34
        Q -72 36 -74 42
        Q -72 48 -64 48
        Q -54 48 -42 46
        Q -28 44 -12 50
        Q -8 48 -10 40
        Z"
        fill="#E7DCCF"/>

      <ellipse cx="-78" cy="42" rx="8" ry="7" fill="#E7DCCF"/>

      <path d="M12 42 Q28 60 26 84 Q22 90 16 88 Q18 64 6 46 Q8 42 12 42 Z" fill="#E7DCCF"/>

      <rect x="-6" y="96" width="10" height="40" rx="5" fill="#E7DCCF"/>
      <rect x="8" y="96" width="10" height="40" rx="5" fill="#E7DCCF"/>
      <ellipse cx="-2" cy="140" rx="12" ry="6" fill="#D8C6B2"/>
      <ellipse cx="13" cy="140" rx="12" ry="6" fill="#D8C6B2"/>
    </g>

    <path d="M512 640 Q516 638 520 642" stroke="#E5DBCF" stroke-width="12" stroke-linecap="round" fill="none"/>
  </g>

  <circle cx="516" cy="641" r="10" fill="#F2ECE4" opacity="0.7" filter="url(#softGlow)"/>

  <g fill="#F2F6FF" opacity="0.72">
    <circle cx="235" cy="250" r="3"/>
    <circle cx="300" cy="210" r="2.5"/>
    <circle cx="785" cy="240" r="3"/>
    <circle cx="820" cy="330" r="2.5"/>
    <circle cx="690" cy="180" r="2"/>
    <circle cx="380" cy="180" r="2"/>
  </g>
</svg>